<?xml version="1.0" standalone="no"?>
<!DOCTYPE svg PUBLIC "-//W3C//DTD SVG 20010904//EN"
 "http://www.w3.org/TR/2001/REC-SVG-20010904/DTD/svg10.dtd">
<svg version="1.0" xmlns="http://www.w3.org/2000/svg"
 width="1216.000000pt" height="1216.000000pt" viewBox="0 0 1216.000000 1216.000000"
 preserveAspectRatio="xMidYMid meet">
<metadata>
Created by potrace 1.11, written by Peter Selinger 2001-2013
</metadata>
<g transform="translate(0.000000,1216.000000) scale(0.100000,-0.100000)"
fill="#000000" stroke="none">
<path d="M5990 9993 c-41 -13 -84 -27 -95 -32 -19 -9 -251 -87 -285 -96 -8 -2
-34 -10 -57 -19 -24 -8 -43 -13 -43 -9 0 3 -6 1 -12 -4 -7 -5 -40 -18 -73 -28
-33 -10 -64 -20 -70 -24 -5 -3 -14 -6 -20 -7 -5 -1 -181 -59 -390 -129 -209
-69 -384 -127 -390 -128 -5 -2 -14 -5 -20 -8 -8 -5 -42 -16 -75 -24 -3 0 -104
-34 -225 -74 -261 -86 -249 -82 -252 -82 -2 0 -23 -8 -48 -19 -25 -11 -45 -18
-45 -16 0 3 -24 -5 -52 -16 -29 -10 -57 -20 -63 -22 -5 -1 -129 -42 -275 -90
-146 -49 -269 -89 -275 -91 -5 -1 -17 -5 -25 -8 -21 -9 -1192 -398 -1210 -402
-8 -2 -16 -4 -17 -5 -2 -2 -6 -3 -10 -4 -5 -1 -12 -4 -18 -7 -8 -5 -41 -15
-75 -24 -3 0 -77 -25 -165 -55 -88 -30 -162 -55 -165 -55 -8 -2 -264 -86 -280
-92 -8 -4 -17 -7 -20 -8 -3 0 -36 -12 -75 -25 -38 -13 -74 -25 -80 -26 -12 -2
-372 -122 -395 -131 -8 -3 -21 -8 -27 -10 -7 -1 -19 -5 -25 -6 -7 -2 -26 -10
-43 -16 -16 -7 -37 -14 -45 -16 -8 -2 -51 -15 -95 -30 -44 -15 -86 -29 -95
-31 -8 -2 -46 -15 -85 -28 -38 -14 -78 -25 -87 -26 -10 0 -18 -4 -18 -9 0 -5
-19 -12 -42 -16 -23 -4 -49 -11 -58 -15 -8 -4 -26 -12 -40 -17 -23 -9 -21 -11
30 -29 30 -10 57 -19 60 -19 3 -1 12 -4 20 -8 14 -5 88 -29 100 -32 3 -1 12
-4 20 -8 18 -7 123 -41 130 -42 6 -1 200 -65 220 -72 8 -3 20 -7 25 -9 16 -4
379 -125 395 -131 8 -3 20 -7 25 -9 18 -4 260 -84 275 -91 8 -3 20 -7 26 -8
18 -4 568 -186 589 -195 11 -5 31 -11 45 -14 36 -8 57 -24 45 -33 -25 -19
-186 -285 -254 -422 -77 -154 -189 -439 -206 -524 -3 -10 -7 -27 -10 -37 -3
-10 -7 -27 -9 -37 -3 -10 -11 -47 -19 -83 -9 -36 -18 -85 -22 -110 -3 -25 -9
-61 -12 -80 -3 -19 -7 -46 -9 -60 -4 -29 -16 -293 -15 -331 1 -20 -9 -32 -49
-58 -111 -72 -221 -238 -245 -369 -24 -133 -24 -211 0 -342 11 -61 63 -190 78
-190 4 0 7 -6 7 -13 0 -18 131 -157 148 -157 6 0 12 -3 12 -8 0 -4 15 -16 34
-26 31 -16 34 -22 30 -55 -3 -31 -10 -73 -19 -117 -2 -6 -6 -37 -9 -70 -4 -32
-9 -68 -12 -79 -9 -43 -21 -117 -29 -180 -2 -16 -4 -30 -5 -30 -1 0 -3 -9 -4
-20 -2 -11 -6 -42 -11 -70 -4 -27 -9 -59 -10 -70 -2 -11 -4 -22 -5 -25 -1 -3
-2 -8 -1 -12 0 -4 -4 -31 -9 -60 -17 -97 -21 -123 -24 -153 -2 -16 -6 -43 -9
-60 -4 -16 -9 -50 -13 -75 -4 -25 -8 -54 -10 -65 -2 -11 -5 -33 -8 -50 -3 -16
-7 -43 -10 -60 -12 -80 -19 -121 -22 -149 -1 -17 -7 -54 -13 -83 -6 -29 -13
-74 -16 -100 -4 -26 -8 -55 -10 -63 -3 -8 -9 -46 -14 -85 -6 -38 -13 -88 -16
-110 -3 -22 -8 -51 -11 -65 -3 -14 -8 -38 -10 -53 -8 -68 -15 -114 -19 -137
-7 -41 -16 -93 -20 -120 -2 -14 -6 -40 -9 -58 -4 -17 -3 -32 1 -33 18 -2 498
-12 616 -13 70 0 127 -3 127 -6 0 -4 77 -4 90 1 3 1 9 0 15 -1 5 -1 130 -4
278 -7 l268 -5 -6 29 c-3 15 -8 46 -10 68 -1 22 -6 56 -9 75 -7 40 -13 90 -22
169 -3 30 -8 64 -10 75 -2 12 -7 48 -10 81 -3 33 -7 62 -9 65 -2 3 -6 37 -10
75 -4 39 -9 79 -11 90 -2 11 -6 43 -9 70 -4 28 -8 61 -10 75 -2 14 -6 43 -9
65 -4 22 -8 58 -11 80 -3 21 -9 73 -15 115 -5 41 -12 98 -15 125 -4 28 -8 61
-11 75 -2 14 -7 48 -10 75 -3 28 -9 82 -15 120 -14 104 -18 134 -25 194 -3 30
-7 62 -9 70 -3 16 -10 75 -20 156 -3 22 -7 50 -9 62 -3 12 -7 46 -10 75 -4 29
-9 71 -12 93 -3 22 -7 57 -9 78 -2 21 -7 42 -10 46 -2 5 12 22 33 37 73 56
189 196 196 237 1 7 7 21 13 32 14 26 37 109 51 185 9 52 7 272 -2 295 -5 11
-11 30 -13 43 -6 36 -61 150 -83 174 -11 12 -20 26 -20 32 0 16 -143 150 -184
171 l-38 20 6 100 c6 105 8 125 22 215 11 72 11 74 14 80 1 3 4 17 6 32 3 15
16 69 29 120 14 51 27 100 29 109 2 9 12 39 21 65 9 27 18 54 19 59 3 12 8 24
49 125 68 165 203 395 291 495 20 22 36 43 36 47 0 6 472 -146 502 -163 10 -5
26 -9 36 -9 10 0 22 -3 26 -7 4 -5 11 -8 14 -8 4 0 156 -49 337 -109 338 -111
358 -118 362 -117 2 0 23 -8 48 -19 25 -11 45 -17 45 -13 0 3 7 0 15 -7 8 -7
15 -9 15 -5 0 4 6 3 13 -3 7 -6 31 -15 52 -21 35 -9 205 -63 245 -78 8 -4 17
-7 20 -8 3 -1 39 -12 80 -25 41 -13 78 -23 83 -22 4 1 7 -3 7 -8 0 -6 7 -10
16 -10 9 0 48 -11 85 -25 38 -13 72 -25 77 -26 4 -1 12 -3 17 -5 6 -2 80 -26
165 -54 85 -27 162 -53 170 -57 8 -3 24 -8 35 -10 11 -1 29 -7 40 -12 22 -10
172 -61 195 -66 8 -2 42 -13 75 -25 33 -12 67 -23 75 -25 8 -2 95 -31 193 -64
97 -33 177 -57 177 -54 0 3 6 1 13 -4 6 -6 42 -20 79 -31 66 -22 96 -20 148 7
9 5 31 12 50 16 19 4 41 11 50 16 14 7 276 95 310 104 8 2 186 61 395 130 209
70 388 128 398 130 9 2 23 7 30 12 6 4 17 8 22 9 13 2 225 71 290 95 28 10 61
20 75 24 14 3 34 10 45 15 11 5 139 47 285 95 146 48 272 89 280 92 8 4 17 7
20 7 10 3 175 57 190 63 8 3 20 7 25 9 6 1 37 12 70 23 33 12 67 23 75 26 8 2
146 47 305 100 160 53 295 97 300 98 6 2 15 5 20 8 6 3 114 39 240 80 127 40
233 78 237 84 4 5 8 7 8 3 0 -6 82 17 140 39 8 3 20 7 25 9 6 1 147 48 315
105 168 56 311 102 318 102 6 0 12 5 12 10 0 6 3 8 6 4 4 -3 22 0 41 8 19 8
39 12 44 9 5 -3 9 -1 9 5 0 5 15 13 33 17 40 10 39 9 57 17 8 3 105 35 215 71
110 36 214 70 230 76 40 15 176 60 195 65 8 2 76 25 150 50 141 48 304 100
330 107 8 1 17 5 20 8 3 3 33 14 68 25 l64 19 -134 44 c-73 24 -137 44 -143
46 -5 1 -14 4 -20 7 -5 3 -30 11 -55 18 -25 7 -54 17 -65 22 -11 4 -78 27
-150 49 -71 23 -143 47 -160 53 -16 6 -32 12 -35 12 -3 0 -9 3 -15 6 -5 3 -30
11 -55 19 -53 15 -156 49 -185 60 -11 4 -51 17 -90 29 -38 12 -79 26 -90 30
-11 5 -121 41 -245 81 -124 40 -232 75 -240 78 -8 3 -19 6 -25 8 -5 2 -75 25
-155 52 -80 27 -244 81 -365 121 -121 40 -229 76 -240 80 -11 5 -54 19 -95 31
-41 13 -88 28 -105 36 -16 7 -43 15 -60 19 -16 4 -39 10 -50 15 -31 13 -59 23
-71 25 -15 4 -1105 364 -1124 372 -8 3 -20 7 -26 8 -5 2 -102 33 -215 71 -112
37 -208 69 -214 70 -18 4 -260 84 -275 91 -8 4 -19 8 -25 8 -5 1 -17 5 -25 8
-17 8 -408 137 -430 143 -8 2 -42 13 -75 25 -33 11 -64 22 -70 23 -5 2 -17 5
-25 8 -8 3 -53 18 -100 33 -47 15 -94 31 -105 35 -20 9 -302 101 -320 105 -5
1 -17 5 -25 8 -26 10 -144 49 -170 56 -16 5 -52 -1 -100 -16z"/>
<path d="M2767 6403 c-5 -8 -3 -212 8 -1118 8 -674 9 -703 23 -717 7 -7 12
-20 12 -30 0 -10 5 -18 10 -18 6 0 10 -6 10 -13 0 -12 54 -93 112 -170 28 -37
178 -191 178 -183 0 3 12 -7 28 -22 15 -16 45 -41 67 -58 22 -16 42 -31 45
-34 16 -16 130 -90 139 -90 6 0 11 -3 11 -7 0 -5 10 -13 23 -19 12 -6 64 -34
115 -62 141 -78 487 -219 579 -238 12 -2 35 -9 50 -15 16 -6 29 -10 30 -10 2
0 8 -1 15 -4 41 -13 211 -54 248 -60 25 -4 48 -9 52 -12 5 -2 20 -6 33 -9 14
-2 37 -6 53 -9 15 -3 41 -8 57 -10 17 -3 41 -7 55 -10 49 -11 101 -19 195 -31
22 -2 56 -7 75 -10 19 -3 51 -7 70 -9 19 -3 60 -7 90 -10 30 -4 80 -8 110 -11
30 -2 75 -6 100 -8 250 -27 1036 -28 1360 -2 166 13 292 25 335 31 17 2 56 7
88 10 32 4 68 8 80 11 11 2 39 6 62 9 56 8 265 44 295 50 14 4 36 8 50 11 14
3 33 7 42 10 10 3 30 7 45 10 16 3 87 20 158 39 553 144 1001 380 1255 661 99
110 133 158 187 264 l33 65 -5 305 c-3 168 -7 454 -10 635 -3 182 -7 455 -9
608 -2 153 -6 281 -9 284 -3 3 -12 1 -19 -3 -13 -8 -22 -11 -63 -18 -11 -2
-27 -6 -35 -10 -18 -7 -309 -95 -330 -100 -8 -2 -22 -6 -30 -9 -8 -3 -100 -31
-205 -62 -104 -30 -217 -64 -250 -75 -33 -10 -114 -35 -180 -54 -66 -19 -148
-43 -182 -54 -35 -11 -63 -18 -63 -15 0 3 -6 1 -13 -5 -7 -6 -24 -13 -37 -16
-22 -4 -205 -58 -700 -207 -74 -22 -196 -59 -270 -81 -74 -23 -155 -47 -180
-54 -25 -7 -83 -24 -130 -39 -47 -15 -89 -28 -95 -29 -5 -1 -30 -8 -55 -15
-25 -7 -46 -13 -48 -12 -1 1 -18 -5 -37 -13 -20 -9 -38 -15 -40 -16 -3 0 -6 0
-7 -1 -2 0 -10 -2 -18 -4 -24 -6 -224 -66 -240 -72 -8 -3 -19 -5 -25 -4 -5 2
-18 4 -28 6 -10 2 -32 9 -50 14 -40 13 -167 51 -187 56 -31 8 -197 57 -240 72
-25 8 -52 16 -60 18 -23 4 -131 35 -160 45 -14 5 -52 16 -85 25 -33 10 -67 20
-75 23 -8 3 -22 7 -30 8 -18 3 -219 63 -240 71 -8 3 -19 7 -25 8 -5 2 -44 13
-85 25 -41 12 -79 23 -85 25 -5 1 -17 5 -25 8 -18 7 -230 69 -245 71 -17 3
-129 38 -150 46 -11 5 -38 13 -60 18 -22 5 -80 22 -130 37 -146 44 -288 86
-310 91 -27 7 -37 10 -55 16 -8 4 -49 16 -90 28 -41 12 -102 30 -135 40 -33 9
-82 23 -110 30 -27 7 -56 17 -62 23 -7 5 -13 7 -13 4 0 -4 -19 0 -41 9 -23 8
-51 16 -63 18 -12 2 -41 11 -66 19 -60 20 -164 51 -207 61 -10 3 -18 5 -18 6
0 1 -7 3 -15 5 -34 9 -116 33 -131 40 -10 3 -19 3 -22 -2z"/>
</g>
</svg>
