<?xml version="1.0" encoding="UTF-8"?>
<svg width="20.156mm" height="13.07mm" version="1.1" viewBox="0 0 20.156328 13.069957" xmlns="http://www.w3.org/2000/svg" xmlns:cc="http://creativecommons.org/ns#" xmlns:dc="http://purl.org/dc/elements/1.1/" xmlns:rdf="http://www.w3.org/1999/02/22-rdf-syntax-ns#">
<metadata>
<rdf:RDF>
<cc:Work rdf:about="">
<dc:format>image/svg+xml</dc:format>
<dc:type rdf:resource="http://purl.org/dc/dcmitype/StillImage"/>
<dc:title/>
</cc:Work>
</rdf:RDF>
</metadata>
<g transform="translate(-66.167 -110.78)" fill="#dd2a24" stroke="#dd2a24" stroke-width=".165">
<path d="m66.429 114.12 9.7939-3.2482 9.8373 3.2482-9.8038 3.2482z" stroke-miterlimit="3.9"/>
<path d="m70.28 123.77-2.1261-0.0473 0.59059-3.7561s-0.58062-0.21256-0.56106-0.94494c0.01851-0.69293 0.52563-0.87406 0.52563-0.87406s-0.07387-0.70139 0.23624-1.571c0.29109-0.81626 0.74414-1.382 0.74414-1.382l0.94494 0.33072s-0.40611 0.39991-0.67327 1.1576c-0.28174 0.79898-0.24805 1.3702-0.24805 1.3702s0.57173 0.25967 0.57878 0.9095c0.0086 0.79148-0.5079 1.004-0.5079 1.004z"/>
<path d="m70.828 116.87 5.3955 1.5897 5.312-1.5897 0.04742 2.8933s-0.51665 1.9138-5.3505 1.9318c-4.7396 0.0177-5.3683-1.9542-5.3683-1.9542z"/>
</g>
</svg>
