<svg width="76.18" height="49.398" viewBox="0 0 20.156 13.07" xmlns="http://www.w3.org/2000/svg"><g fill="#dd2a24" stroke="#dd2a24" stroke-width=".165"><path d="M.262 3.34L10.056.092l9.837 3.248-9.804 3.248z" stroke-miterlimit="3.9"/><path d="M4.113 12.99l-2.126-.047.59-3.756s-.58-.213-.56-.945c.018-.693.525-.874.525-.874s-.074-.702.236-1.571a5.249 5.249 0 0 1 .744-1.382l.945.33s-.406.4-.673 1.158c-.282.799-.248 1.37-.248 1.37s.572.26.579.91c.008.791-.508 1.004-.508 1.004zm.548-6.9l5.396 1.59 5.312-1.59.047 2.893s-.517 1.914-5.35 1.932c-4.74.018-5.369-1.954-5.369-1.954z"/></g></svg>