<?xml version="1.0" standalone="no"?>
<!DOCTYPE svg PUBLIC "-//W3C//DTD SVG 1.1//EN" "http://www.w3.org/Graphics/SVG/1.1/DTD/svg11.dtd" >
<svg xmlns="http://www.w3.org/2000/svg" xmlns:xlink="http://www.w3.org/1999/xlink" version="1.1">
<metadata></metadata>
<defs>
<font id="yeseva_oneregular" horiz-adv-x="1361" >
<font-face units-per-em="2048" ascent="1638" descent="-410" />
<missing-glyph horiz-adv-x="573" />
<glyph horiz-adv-x="0" />
<glyph unicode="&#xd;" horiz-adv-x="681" />
<glyph unicode=" "  horiz-adv-x="573" />
<glyph unicode="&#x09;" horiz-adv-x="573" />
<glyph unicode="&#xa0;" horiz-adv-x="573" />
<glyph unicode="!" horiz-adv-x="634" d="M123 1229q0 104 57.5 169.5t137 65.5t137 -65.5t57.5 -169.5l-164 -789h-61zM164 143.5q0 67.5 46 115.5t107.5 48t107.5 -48t46 -115.5t-46 -115.5t-107.5 -48t-107.5 48t-46 115.5z" />
<glyph unicode="&#x22;" horiz-adv-x="757" d="M92 1311q0 68 34 105.5t89 37.5t89 -38t34 -105l-82 -400h-82zM420 1311q0 68 33.5 105.5t89 37.5t89.5 -38t34 -105l-82 -400h-82z" />
<glyph unicode="#" horiz-adv-x="1331" d="M41 379v102h256l121 471h-275v103h301l99 379h123l-99 -379h369l98 379h123l-98 -379h231v-103h-258l-121 -471h277v-102h-303l-97 -379h-122l96 379h-369l-96 -379h-123l96 379h-229zM420 481h368l121 471h-368z" />
<glyph unicode="$" horiz-adv-x="1218" d="M72 -10v389h82q4 -14 12 -39t41 -86t75 -108.5t117.5 -86.5t163.5 -39q20 0 31 3v524q-23 14 -80 47t-87 50.5t-81 53t-78.5 61t-63.5 66.5t-55.5 81t-33 91.5t-13.5 108.5q0 154 127 255t365 103v133h61v-137q74 -8 142.5 -39.5t101.5 -60.5l33 -29q18 33 46 60.5 t46 40.5l20 12h52v-389h-82q-4 14 -11.5 37.5t-38 84t-67.5 106.5t-101.5 86t-140.5 42v-504q37 -25 130.5 -79t144.5 -88.5t114.5 -92t93 -126t29.5 -152.5q0 -162 -132 -273.5t-380 -124.5v-135h-61v133q-102 2 -191.5 35t-128.5 66l-38 32q-18 -33 -46 -60.5t-47 -39.5 l-20 -12h-51zM451 1188q0 -129 143 -238v455q-61 -18 -102 -77.5t-41 -139.5zM655 35q76 25 120 88t44 153q0 121 -164 232v-473z" />
<glyph unicode="%" horiz-adv-x="1536" d="M61 1095.5q0 159.5 95.5 259t243 99.5t242.5 -99.5t95 -259t-95 -259t-242.5 -99.5t-243 99.5t-95.5 259zM184 0l1055 1434h113l-1055 -1434h-113zM287 1095.5q0 -317.5 112.5 -317.5t112.5 317.5t-112.5 317.5t-112.5 -317.5zM799 338q0 160 95 259t242.5 99t243 -99 t95.5 -259t-95.5 -259t-243 -99t-242.5 99t-95 259zM1024 337.5q0 -317.5 112.5 -317.5t112.5 317.5t-112.5 317.5t-112.5 -317.5z" />
<glyph unicode="&#x26;" horiz-adv-x="1413" d="M41 328q0 86 41 156.5t100.5 110.5t117.5 66.5t99 34.5l41 11l-112 163q-102 150 -103 277q0 137 110.5 227t309.5 90q78 0 149.5 -33.5t104.5 -66.5l33 -33q18 33 46 60.5t46 40.5l20 12h52v-389h-82q-4 14 -11.5 38.5t-36 86t-63.5 108.5t-93 86t-124 39 q-63 0 -108.5 -51t-45.5 -133q0 -102 127 -277l365 -512q72 113 72 267l-164 61v31h379v-31l-164 -61q0 -74 -22.5 -153t-43.5 -122l-22 -43l231 -328l103 -30v-31h-287q-168 0 -236 102q-12 -14 -33.5 -36.5t-99.5 -59.5t-164 -37q-532 0 -532 359zM389 328 q0 -147 63.5 -227.5t161.5 -80.5q59 0 115.5 31t83.5 62l27 30l-369 523q-8 -8 -22.5 -28t-37 -106t-22.5 -204z" />
<glyph unicode="'" horiz-adv-x="430" d="M92 1311q0 68 34 105.5t89 37.5t89 -38t34 -105l-82 -400h-82z" />
<glyph unicode="(" horiz-adv-x="727" d="M102 543q0 338 160 602t414 432l20 -31q-121 -158 -183 -420t-62 -583.5t62 -583.5t183 -420l-20 -31q-254 168 -414 432.5t-160 602.5z" />
<glyph unicode=")" horiz-adv-x="727" d="M31 -461q121 158 183 420t62 583.5t-62 584t-183 419.5l20 31q254 -168 414 -432t160 -602t-160 -602.5t-414 -432.5z" />
<glyph unicode="*" horiz-adv-x="798" d="M87 1001.5q11 34.5 46 53.5l205 51l-205 51q-35 18 -46 53t5.5 70t58.5 43t74 -12l144 -154l-62 205q0 39 26.5 65.5t65.5 26.5t66 -26.5t27 -65.5l-62 -205l143 154q33 20 75 12t58.5 -43t5 -69.5t-45.5 -53.5l-205 -51l205 -51q35 -18 46 -53t-5.5 -70t-58.5 -43 t-75 12l-143 154l62 -205q0 -39 -27 -65.5t-66 -26.5t-65.5 26.5t-26.5 65.5l62 205l-144 -154q-33 -20 -74.5 -12t-58 43t-5.5 69.5z" />
<glyph unicode="+" horiz-adv-x="1054" d="M72 635v92h409v440h92v-440h410v-92h-410v-440h-92v440h-409z" />
<glyph unicode="," horiz-adv-x="501" d="M92 133.5q0 61.5 46 107.5t108 46q70 0 117 -51.5t47 -133.5q0 -84 -26 -152.5t-61.5 -106.5t-71.5 -64.5t-63 -36.5l-24 -8l-21 51q6 2 17.5 6t41 22.5t54.5 42t49.5 64.5t32.5 90q-41 -31 -92 -30q-61 0 -107.5 46t-46.5 107.5z" />
<glyph unicode="-" horiz-adv-x="962" d="M72 614v93h819v-93h-819z" />
<glyph unicode="." horiz-adv-x="491" d="M92 133.5q0 61.5 46 107.5t107.5 46t107.5 -46t46 -107.5t-46 -107.5t-107.5 -46t-107.5 46t-46 107.5z" />
<glyph unicode="/" horiz-adv-x="716" d="M-41 -102l707 1638h92l-707 -1638h-92z" />
<glyph unicode="0" horiz-adv-x="1372" d="M92 717q0 348 169 547.5t425 199.5t425 -199.5t169 -547.5t-169 -548t-425 -200t-425 200t-169 548zM451 716.5q0 -706.5 235.5 -706.5t235.5 706.5t-235.5 706.5t-235.5 -706.5z" />
<glyph unicode="1" horiz-adv-x="849" d="M31 1096l372 338h222v-1362l143 -41v-31h-625v31l144 41v1124l-215 -152z" />
<glyph unicode="2" horiz-adv-x="1177" d="M61 0v92q0 102 36 192.5t93.5 159t128 133t140 125t127 123t93.5 140t36 161.5q0 135 -66.5 211t-169.5 76q-45 0 -86 -8t-59 -16l-19 -7v-327q-41 -10 -82 -11q-70 0 -111.5 42t-41.5 112q0 102 116.5 184t323.5 82q276 0 409.5 -110.5t133.5 -309.5q0 -137 -82 -238 t-206 -168t-252 -127t-239.5 -148.5t-150.5 -198.5h758q8 74 39 135t57 86l27 25h61v-410h-1014z" />
<glyph unicode="3" horiz-adv-x="1198" d="M51 236q0 70 42 111.5t112 41.5l82 -10v-328q61 -31 164 -31q141 0 219 87.5t78 261.5q0 178 -75 268t-202 90h-102v51h102q90 0 152.5 82t62.5 235.5t-63.5 235.5t-161.5 82q-37 0 -73 -8t-52 -16l-19 -7v-327q-41 -10 -81 -11q-70 0 -112 42t-42 112q0 102 112.5 184 t307.5 82q256 0 394 -106.5t138 -261.5q0 -92 -45 -161t-109.5 -100.5t-130 -51t-110.5 -21.5l-45 -4q10 0 28.5 -1t70.5 -10.5t99.5 -22.5t104.5 -43t99 -69t71 -102.5t29 -140.5q0 -180 -148.5 -290t-455.5 -110q-207 0 -324 82t-117 185z" />
<glyph unicode="4" horiz-adv-x="1228" d="M0 440l768 1014h195v-983h215v-92h-215v-307l143 -41v-31h-625v31l144 41v307h-584zM113 471h512v676z" />
<glyph unicode="5" horiz-adv-x="1167" d="M72 236q0 70 42 111.5t111 41.5l82 -10v-328q62 -31 164 -31q266 0 266 420q0 410 -286 410q-68 0 -139.5 -34t-110.5 -66l-37 -33l-41 31l82 686h604q8 74 39 135t57 86l27 24h61v-399h-743l-55 -471q14 10 38.5 25.5t102.5 41t156 25.5q297 0 445 -123t148 -338 q0 -221 -144 -346t-429 -125q-207 0 -323.5 82t-116.5 185z" />
<glyph unicode="6" horiz-adv-x="1269" d="M102 717q0 369 161 558t444 189q180 0 289.5 -83t109.5 -183q0 -70 -42 -112t-112 -42l-82 11v327q-61 31 -122 31q-74 0 -125.5 -26.5t-92.5 -96t-60 -202t-19 -330.5q2 4 8 13t27.5 29.5t46 37t66.5 30t87 13.5q227 0 359.5 -123t132.5 -318q0 -219 -136.5 -345 t-386.5 -126q-258 0 -405.5 185.5t-147.5 562.5zM461 492q0 -260 56 -371t138 -111q66 0 120 100.5t54 309.5q0 211 -56 310t-128 99q-84 0 -134 -81.5t-50 -255.5z" />
<glyph unicode="7" horiz-adv-x="1085" d="M61 1034v400h973v-93q0 -109 -39 -221t-95 -219.5t-111.5 -230.5t-94.5 -297t-39 -373h-358q0 195 56.5 358.5t144.5 280.5t179 215t176 209t120 217h-727q-8 -74 -39 -135.5t-57 -85.5l-27 -25h-62z" />
<glyph unicode="8" horiz-adv-x="1259" d="M82 338q0 113 98.5 217t239.5 152q-133 76 -205 167t-72 222q0 162 133.5 265t389.5 103q190 0 310 -99t120 -228q0 -98 -83 -187.5t-194 -120.5q379 -164 379 -471q0 -166 -151.5 -277.5t-442.5 -111.5q-256 0 -389 103.5t-133 265.5zM256 338q0 -131 95 -224.5 t233 -93.5q131 0 203.5 73t72.5 204q0 98 -98 198.5t-260 170.5q-246 -88 -246 -328zM481 1157q0 -164 277 -287q174 78 174 267q0 113 -76 194.5t-170 81.5q-88 0 -146.5 -68.5t-58.5 -187.5z" />
<glyph unicode="9" horiz-adv-x="1269" d="M92 993q0 219 136.5 345t385.5 126q258 0 405.5 -185t147.5 -562q0 -369 -160.5 -558.5t-443.5 -189.5q-180 0 -289.5 83t-109.5 184q0 70 42 111.5t111 41.5l82 -10v-328q62 -31 123 -31q74 0 125 27t92 96.5t60.5 201.5t19.5 331q-2 -4 -8 -13.5t-27.5 -30t-46 -36.5 t-66.5 -29.5t-87 -13.5q-227 0 -359.5 123t-132.5 317zM440 1014q0 -211 56.5 -310.5t128.5 -99.5q84 0 134 82t50 256q0 260 -56.5 370.5t-138.5 110.5q-66 0 -120 -100t-54 -309z" />
<glyph unicode=":" horiz-adv-x="491" d="M92 133.5q0 61.5 46 107.5t107.5 46t107.5 -46t46 -107.5t-46 -107.5t-107.5 -46t-107.5 46t-46 107.5zM92 890.5q0 61.5 46 107.5t107.5 46t107.5 -46t46 -107.5t-46 -107.5t-107.5 -46t-107.5 46t-46 107.5z" />
<glyph unicode=";" horiz-adv-x="501" d="M92 133.5q0 61.5 46 107.5t108 46q70 0 117 -51.5t47 -133.5q0 -84 -26 -152.5t-61.5 -106.5t-71.5 -64.5t-63 -36.5l-24 -8l-21 51q6 2 17.5 6t41 22.5t54.5 42t49.5 64.5t32.5 90q-41 -31 -92 -30q-61 0 -107.5 46t-46.5 107.5zM92 890.5q0 61.5 46 107.5t107.5 46 t107.5 -46t46 -107.5t-46 -107.5t-107.5 -46t-107.5 46t-46 107.5z" />
<glyph unicode="&#x3c;" horiz-adv-x="1034" d="M51 512l912 512v-113l-707 -399l707 -399v-113z" />
<glyph unicode="=" horiz-adv-x="942" d="M72 481v92h798v-92h-798zM72 788v93h798v-93h-798z" />
<glyph unicode="&#x3e;" horiz-adv-x="1034" d="M72 0v113l706 399l-706 399v113l911 -512z" />
<glyph unicode="?" horiz-adv-x="1146" d="M31 1198q0 102 116.5 184t323.5 82q301 0 452.5 -115.5t151.5 -304.5q0 -174 -128 -288.5t-384 -151.5l-10 -164h-82l-10 195q125 51 190.5 143t65.5 266q0 195 -72 282t-215 87q-45 0 -86 -8t-59 -16l-19 -7v-327q-41 -10 -82 -11q-70 0 -111.5 42t-41.5 112zM348 143.5 q0 67.5 46 115.5t107.5 48t107.5 -48t46 -115.5t-46 -115.5t-107.5 -48t-107.5 48t-46 115.5z" />
<glyph unicode="@" horiz-adv-x="1720" d="M82 594q0 336 227.5 567.5t551 231.5t550.5 -231.5t227 -567.5q0 -199 -100 -319.5t-238 -120.5q-86 0 -151.5 16t-97 41t-51 49.5t-23.5 40.5l-4 16q-2 -6 -6 -17t-20.5 -40t-39 -50.5t-65.5 -38.5t-94 -17q-150 0 -244 102t-94 276q0 231 135 361.5t387 130.5h297v-666 q0 -74 31.5 -113.5t80.5 -39.5q80 0 153 106.5t73 282.5q0 313 -206 525t-501 212t-500.5 -212t-205.5 -525t205.5 -525t500.5 -212q100 0 197.5 30.5t144.5 61.5l47 31l31 -52q-20 -14 -55 -36.5t-145.5 -59.5t-219.5 -37q-324 0 -551 231.5t-227 567.5zM707 532 q0 -164 34.5 -235.5t87.5 -71.5q33 0 58.5 31t34.5 61l10 31v625q-225 -1 -225 -441z" />
<glyph unicode="A" horiz-adv-x="1392" d="M-41 0v31l164 61l563 1362h62l583 -1393l103 -30v-31h-246q-201 0 -275 174l-104 246h-490l-135 -328l154 -61v-31h-379zM340 471h448l-225 539z" />
<glyph unicode="B" horiz-adv-x="1392" d="M102 0v31l123 30v1311l-123 31v31h553q311 0 458 -99.5t147 -259.5q0 -88 -49.5 -153.5t-120 -95t-142 -47t-121.5 -19.5l-49 -2q12 0 31.5 -1t77 -8.5t110 -19.5t116 -39.5t109.5 -65.5t77.5 -98.5t31.5 -136.5q0 -389 -635 -389h-594zM563 51h133q127 0 207 90t80 248 t-80 248t-207 90h-133v-676zM563 778h92q102 0 179 85t77 212q0 133 -75.5 220t-180.5 87h-92v-604z" />
<glyph unicode="C" horiz-adv-x="1331" d="M92 717q0 354 177 550.5t470 196.5q86 0 167 -33.5t120 -66.5l39 -33q18 33 46 60.5t48 40.5l19 12h51v-389h-82q-4 14 -12.5 38.5t-39 86t-68.5 108.5t-104.5 86t-144.5 39q-141 0 -234 -164t-93 -532q0 -696 378 -697q147 0 263 118t116 272h52q0 -178 -137.5 -309.5 t-334.5 -131.5q-326 0 -511 194.5t-185 553.5z" />
<glyph unicode="D" horiz-adv-x="1464" d="M102 0v31l123 30v1311l-123 31v31h523q367 0 562 -188.5t195 -528.5t-195.5 -528.5t-561.5 -188.5h-523zM563 51h62q399 0 399 665.5t-399 665.5h-62v-1331z" />
<glyph unicode="E" horiz-adv-x="1320" d="M102 0v31l123 30v1311l-123 31v31h1096v-369h-61q-14 12 -37 34.5t-59.5 104.5t-36.5 178h-441v-645h236q8 49 31.5 100.5t41.5 77.5l19 27h61v-461h-61q-72 92 -92 205h-236v-635h481q0 59 13.5 114.5t33 90.5t40 61.5t32.5 38.5l15 13h61v-369h-1137z" />
<glyph unicode="F" horiz-adv-x="1249" d="M102 0v31l123 30v1311l-123 31v31h1096v-369h-61q-14 12 -37 34.5t-59.5 104.5t-36.5 178h-441v-645h236q8 49 31.5 100.5t41.5 77.5l19 27h61v-461h-61q-72 92 -92 205h-236v-625l123 -30v-31h-584z" />
<glyph unicode="G" horiz-adv-x="1433" d="M92 717q0 354 177 550.5t470 196.5q86 0 167 -33.5t120 -66.5l39 -33q18 33 46 60.5t48 40.5l19 12h51v-389h-82q-4 14 -12.5 38.5t-39 86t-68.5 108.5t-104.5 86t-144.5 39q-141 0 -234 -164t-93 -532q0 -676 297 -676q55 0 101 41t64 82l19 41v471l-123 31v30h584v-30 l-123 -31v-686h-31q-66 0 -119 16.5t-80.5 41t-46 49t-24.5 40.5l-6 17q-4 -8 -10.5 -20.5t-32 -44.5t-57.5 -56.5t-85 -44t-112 -19.5q-242 0 -408 200t-166 548z" />
<glyph unicode="H" horiz-adv-x="1566" d="M102 0v31l123 30v1311l-123 31v31h584v-31l-123 -31v-635h441v635l-123 31v31h583v-31l-123 -31v-1311l123 -30v-31h-583v31l123 30v625h-441v-625l123 -30v-31h-584z" />
<glyph unicode="I" horiz-adv-x="788" d="M102 0v31l123 30v1311l-123 31v31h584v-31l-123 -31v-1311l123 -30v-31h-584z" />
<glyph unicode="J" horiz-adv-x="1126" d="M0 195q0 70 42 111.5t112 41.5l82 -10v-307q41 -21 102 -21q246 0 246 400v962l-123 31v31h583v-31l-122 -31v-962q0 -440 -543 -441q-186 0 -282.5 65.5t-96.5 160.5z" />
<glyph unicode="K" horiz-adv-x="1413" d="M102 0v31l123 30v1311l-123 31v31h584v-31l-123 -31v-643l502 612l-154 62v31h389v-31l-163 -62l-359 -440l553 -840l103 -30v-31h-287q-160 0 -277 174l-307 471v-584l123 -30v-31h-584z" />
<glyph unicode="L" horiz-adv-x="1249" d="M102 0v31l123 30v1311l-123 31v31h584v-31l-123 -31v-1321h441q0 59 13 114.5t32.5 90.5t40 61.5t32.5 38.5l15 13h61v-369h-1096z" />
<glyph unicode="M" horiz-adv-x="2017" d="M61 0v31l164 61v1280l-123 31v31h256q106 0 169 -44t108 -130l446 -854l342 854q37 92 95.5 133t181.5 41h215v-31l-123 -31v-1311l123 -30v-31h-584v31l123 30v1117l-481 -1198h-62l-624 1198v-1086l164 -61v-31h-390z" />
<glyph unicode="N" horiz-adv-x="1515" d="M61 0v31l164 61v1270l-143 41v31h215q76 0 137.5 -26t88 -50.5t61.5 -67.5l655 -768v819l-164 62v31h389v-31l-164 -62v-1372h-61l-952 1116v-993l164 -61v-31h-390z" />
<glyph unicode="O" horiz-adv-x="1515" d="M92 716.5q0 354.5 180.5 551t485.5 196.5t485 -196.5t180 -551t-180 -551t-485 -196.5t-485.5 196.5t-180.5 551zM451 717q0 -373 90 -540t217 -167t217 167t90 540t-90 539.5t-217 166.5t-217 -166.5t-90 -539.5z" />
<glyph unicode="P" horiz-adv-x="1382" d="M102 0v31l123 30v1311l-123 31v31h574q340 0 487.5 -112t147.5 -329t-147.5 -328.5t-487.5 -111.5h-113v-492l123 -30v-31h-584zM563 604h113q129 0 208 98.5t79 291t-79 290.5t-208 98h-113v-778z" />
<glyph unicode="Q" horiz-adv-x="1515" d="M92 717q0 354 180.5 550.5t485.5 196.5t485 -196.5t180 -550.5q0 -303 -133 -490.5t-368 -236.5q0 -276 102 -277q18 0 33.5 5.5t21.5 11.5l6 4l21 -51q-41 -31 -143 -31q-166 0 -267.5 95t-101.5 243q-233 47 -367.5 235.5t-134.5 491.5zM451 717q0 -373 90 -540 t217 -167t217 167t90 540t-90 539.5t-217 166.5t-217 -166.5t-90 -539.5z" />
<glyph unicode="R" horiz-adv-x="1433" d="M102 0v31l123 30v1311l-123 31v31h543q655 0 655 -400q0 -78 -26.5 -140.5t-70.5 -100t-96 -66.5t-104.5 -42t-96.5 -20.5t-70 -9.5h-27q10 0 27.5 -1t66.5 -11t90 -27.5t86 -55.5t68 -89l184 -410l103 -30v-31h-287q-170 0 -246 174l-205 461h-133v-574l144 -30v-31 h-605zM563 686h82q141 0 224 91t83 257t-83 257t-224 91h-82v-696z" />
<glyph unicode="S" horiz-adv-x="1218" d="M72 -10v389h82q4 -14 12 -39t41 -86t75 -108.5t117.5 -86.5t163.5 -39q115 0 185.5 71t70.5 185q0 86 -74.5 159t-181 131.5t-214 125t-182.5 173t-75 241.5q0 156 130 257t372 101q86 0 168 -33.5t121 -66.5l39 -33q18 33 45.5 60.5t48.5 40.5l18 12h51v-389h-81 q-4 14 -12.5 38.5t-39 86t-68.5 108.5t-104.5 86t-144.5 39q-80 0 -137.5 -63.5t-57.5 -161.5q0 -82 54.5 -150.5t134.5 -116t175 -104.5t175 -112.5t134 -143.5t54 -192q0 -172 -146.5 -286t-416.5 -114q-104 0 -196.5 34t-133.5 67l-38 32q-18 -33 -46 -60.5t-47 -39.5 l-20 -12h-51z" />
<glyph unicode="T" horiz-adv-x="1300" d="M51 1065v369h1198v-369h-61q-14 12 -37 34.5t-59.5 104.5t-36.5 178h-236v-1321l123 -30v-31h-584v31l123 30v1321h-235q0 -59 -13.5 -114.5t-33 -90t-40 -61t-32.5 -39.5l-14 -12h-62z" />
<glyph unicode="U" horiz-adv-x="1454" d="M72 1403v31h583v-31l-123 -31v-860q0 -264 82 -378t236 -114q147 0 258 135.5t111 356.5v829l-164 62v31h389v-31l-164 -62v-829q0 -248 -133 -395.5t-338 -147.5q-303 0 -458.5 142.5t-155.5 400.5v860z" />
<glyph unicode="V" d="M-41 1403v31h246q199 0 276 -174l363 -826l334 907l-154 62v31h379v-31l-164 -62l-502 -1361h-61l-615 1392z" />
<glyph unicode="W" horiz-adv-x="2017" d="M-41 1403v31h246q109 0 178.5 -49.5t97.5 -124.5l310 -789l180 528l-152 383l-112 21v31h245q207 0 277 -174l309 -789l295 870l-154 62v31h379v-31l-164 -62l-460 -1361h-62l-368 935l-318 -935h-61l-553 1402z" />
<glyph unicode="X" d="M-10 1403v31h297q100 0 162.5 -44t113.5 -130l197 -336l284 417l-153 62v31h389v-31l-164 -62l-321 -473l475 -807l102 -30v-31h-297q-100 0 -162.5 44t-113.5 130l-221 375l-312 -457l154 -61v-31h-389v31l164 61l348 514l-451 766z" />
<glyph unicode="Y" d="M0 1403v31h256q109 0 171 -45.5t105 -128.5l304 -605l311 686l-154 62v31h389v-31l-163 -62l-359 -788v-492l123 -30v-31h-584v31l123 30v471l-420 840z" />
<glyph unicode="Z" horiz-adv-x="1300" d="M82 0v51l760 1331h-535q0 -59 -13 -114.5t-33.5 -90t-40 -61t-32.5 -39.5l-14 -12h-61v369h1106v-52l-758 -1331h553q0 96 33.5 175t66.5 110l33 33h61v-369h-1126z" />
<glyph unicode="[" horiz-adv-x="716" d="M174 -451v1926h522v-52h-194v-1822h194v-52h-522z" />
<glyph unicode="\" horiz-adv-x="716" d="M-41 1536h92l707 -1638h-92z" />
<glyph unicode="]" horiz-adv-x="716" d="M20 -399h195v1822h-195v52h523v-1926h-523v52z" />
<glyph unicode="^" horiz-adv-x="983" d="M61 881l431 594l430 -594h-123l-307 419l-308 -419h-123z" />
<glyph unicode="_" horiz-adv-x="798" d="M0 -113h799v-92h-799v92z" />
<glyph unicode="`" horiz-adv-x="450" d="M41 1434h266l82 -308h-72z" />
<glyph unicode="a" horiz-adv-x="1239" d="M102 246q0 55 18.5 111.5t35.5 84.5l18 29q297 72 574 82v61q0 227 -55.5 313.5t-170.5 86.5q-27 0 -52.5 -5t-37.5 -10l-12 -6v-307q-41 -10 -82 -10q-70 0 -112 42t-42 111q0 94 96.5 160t282.5 66q240 0 376 -122t136 -319v-553l123 -30v-31h-184q-55 0 -99.5 15.5 t-69 39t-41 46t-22.5 38.5l-4 15q-4 -8 -10 -20.5t-31.5 -44.5t-57.5 -56.5t-85 -44t-113 -19.5q-184 0 -281.5 78t-97.5 199zM440 266q0 -115 36 -170t87 -55q55 0 101.5 41t64.5 82l19 41v297q-55 0 -122 -5t-106 -10l-39 -6q-41 -92 -41 -215z" />
<glyph unicode="b" horiz-adv-x="1259" d="M41 1403v31h266q184 0 185 -185v-276q92 82 235 82q205 0 328 -140.5t123 -402.5q0 -260 -118 -401.5t-302 -141.5q-59 0 -112.5 19.5t-85.5 46t-56.5 53.5t-32.5 47l-10 19q-2 -6 -6 -17.5t-23.5 -40t-47.5 -50t-81 -39t-119 -17.5h-20v1382zM492 205q6 -18 20 -46 t61.5 -73t102.5 -45q153 0 153 465v6q0 276 -48 378.5t-136 102.5q-37 0 -75 -20.5t-58 -40.5l-20 -21v-706z" />
<glyph unicode="c" horiz-adv-x="1085" d="M82 512q0 254 146.5 398.5t406.5 144.5q186 0 282.5 -65.5t96.5 -160.5q0 -70 -42 -111.5t-112 -41.5l-82 10v307q-41 21 -102 21q-119 0 -182.5 -110.5t-63.5 -391.5q0 -274 63.5 -383t182.5 -109q121 0 209 82t88 185h51q0 -127 -109.5 -222.5t-279.5 -95.5 q-260 0 -406.5 144.5t-146.5 398.5z" />
<glyph unicode="d" horiz-adv-x="1269" d="M82 512q0 262 123 402.5t327 140.5q63 0 123 -20.5t86 -41.5l27 -20v399l-123 31v31h266q184 0 185 -185v-1188l123 -30v-31h-185q-55 0 -99 15.5t-68.5 39t-41 46t-22.5 38.5l-4 15q-4 -8 -10.5 -20.5t-32 -44.5t-57 -56.5t-85 -44t-112.5 -19.5q-184 0 -302 141.5 t-118 401.5zM430 512q0 -471 154 -471q55 0 101 41t65 82l18 41v706q-72 82 -154 82q-88 0 -136 -102.5t-48 -378.5z" />
<glyph unicode="e" horiz-adv-x="1146" d="M82 512q0 250 138 396.5t364 146.5q223 0 357 -118t134 -292q0 -33 -5 -63.5t-9 -44.5l-6 -15q-297 -61 -625 -61q0 -440 246 -441q121 0 209 82t88 185h51q0 -127 -109.5 -222.5t-279.5 -95.5q-260 0 -406.5 144.5t-146.5 398.5zM430 512q82 0 153.5 5t102.5 11l31 4 q20 72 20 154q0 170 -45 249t-108 79q-154 0 -154 -502z" />
<glyph unicode="f" horiz-adv-x="870" d="M51 932v51h144v102q0 164 116.5 271.5t313.5 107.5q160 0 249 -66.5t89 -158.5q0 -70 -42 -112t-112 -42l-82 11v317q-31 10 -61 10q-70 0 -107 -72.5t-37 -265.5v-102h328v-51h-328v-871l123 -30v-31h-573v31l123 30v871h-144z" />
<glyph unicode="g" horiz-adv-x="1239" d="M51 -215q0 70 42 112t112 42l82 -11v-286q123 -41 256 -41q250 0 365.5 70.5t115.5 174.5q0 133 -246 134h-389q-154 0 -235.5 63t-81.5 162q0 45 20.5 86t48 64.5t56 42t49.5 24.5l20 8q-143 86 -143 266q0 154 114.5 246t335.5 92q201 0 308 -71q2 4 6 13t20.5 29.5 t37 37t55 29.5t75.5 13q70 0 117 -49t47 -125q0 -59 -32.5 -96t-80.5 -37l-71 10v246q-41 0 -75 -25.5t-46 -50.5l-12 -26q102 -88 102 -236q0 -154 -114.5 -246t-336.5 -92q-147 0 -266 52q-82 -31 -82 -72q0 -72 164 -72h389q154 0 241 -89t87 -249q0 -164 -136 -266 t-407 -102q-266 0 -389 67.5t-123 157.5zM430 696q0 -297 143.5 -297t143.5 297t-143.5 297t-143.5 -297z" />
<glyph unicode="h" d="M82 0v31l123 30v1311l-123 31v31h266q184 0 184 -185v-327q8 14 28 36.5t88.5 59.5t150.5 37q172 0 285.5 -101.5t113.5 -236.5v-656l123 -30v-31h-266q-185 0 -185 184v533q0 129 -47 197.5t-106 68.5q-55 0 -101.5 -41t-64.5 -82l-19 -41v-758l123 -30v-31h-573z" />
<glyph unicode="i" horiz-adv-x="696" d="M82 0v31l123 30v902l-123 30v31h266q184 0 184 -184v-779l123 -30v-31h-573zM195 1280q0 70 52 122t121.5 52t122 -52t52.5 -122t-52.5 -122t-122 -52t-121.5 52t-52 122z" />
<glyph unicode="j" horiz-adv-x="675" d="M-225 -246q0 70 42 112t111 42l82 -10v-287q20 -10 41 -10q143 0 144 338v1024l-123 30v31h266q184 0 184 -184v-901q0 -166 -120.5 -272.5t-329.5 -106.5q-297 0 -297 194zM184 1280q0 70 52.5 122t122 52t121.5 -52t52 -122t-52 -122t-121.5 -52t-122 52t-52.5 122z " />
<glyph unicode="k" horiz-adv-x="1228" d="M82 0v31l123 30v1311l-123 31v31h266q184 0 184 -185v-717l379 400l-153 61v31h389v-31l-164 -61l-235 -246l399 -625l102 -30v-31h-266q-100 0 -161.5 44t-114.5 130l-175 277v-390l123 -30v-31h-573z" />
<glyph unicode="l" horiz-adv-x="696" d="M82 0v31l123 30v1311l-123 31v31h266q184 0 184 -185v-1188l123 -30v-31h-573z" />
<glyph unicode="m" horiz-adv-x="1945" d="M82 0v31l123 30v902l-123 30v31h184q55 0 99.5 -15.5t69 -39t41 -46t20.5 -38.5l6 -15q4 8 10 20.5t30.5 44.5t54.5 56.5t78 44t103 19.5q119 0 210 -53.5t138 -141.5q4 8 10.5 21.5t31 46.5t54 58.5t78 47t103.5 21.5q166 0 272.5 -98.5t106.5 -239.5v-656l123 -30v-31 h-267q-184 0 -184 184v533q0 135 -40 200.5t-93 65.5q-45 0 -86 -41t-59 -82l-19 -41v-758l123 -30v-31h-573v31l122 30v656q0 135 -39.5 200.5t-93.5 65.5q-45 0 -86 -41t-59 -82l-19 -41v-758l123 -30v-31h-573z" />
<glyph unicode="n" d="M82 0v31l123 30v902l-123 30v31h184q55 0 99.5 -15.5t69 -39t41 -46t20.5 -38.5l6 -15q4 8 10 20.5t31.5 44.5t57.5 56.5t85 44t113 19.5q172 0 285.5 -101.5t113.5 -236.5v-656l123 -30v-31h-266q-185 0 -185 184v533q0 129 -47 197.5t-106 68.5q-55 0 -101.5 -41 t-64.5 -82l-19 -41v-758l123 -30v-31h-573z" />
<glyph unicode="o" horiz-adv-x="1249" d="M82 512q0 254 144.5 398.5t398.5 144.5t398 -144.5t144 -398.5t-144 -398.5t-398 -144.5t-398.5 144.5t-144.5 398.5zM430 512q0 -272 56.5 -387t138.5 -115t138 115t56 387t-56 387t-138 115t-138.5 -115t-56.5 -387z" />
<glyph unicode="p" horiz-adv-x="1280" d="M61 -379l123 31v1311l-123 30v31h185q55 0 99 -15.5t68.5 -39t41 -46t20.5 -38.5l6 -15q4 8 10.5 20.5t32 44.5t57 56.5t85 44t112.5 19.5q184 0 302 -141.5t118 -401.5q0 -262 -123 -402.5t-327 -140.5q-63 0 -123 20.5t-86 41.5l-27 20v-399l123 -31v-31h-574v31z M512 113q72 -82 154 -82q88 0 136 102.5t48 378.5q0 471 -154 471q-55 0 -101 -41t-65 -82l-18 -41v-706z" />
<glyph unicode="q" horiz-adv-x="1259" d="M82 512q0 260 117.5 401.5t302.5 141.5q59 0 112.5 -19.5t85 -46t55 -53.5t33.5 -47l11 -19q2 6 6 17.5t23.5 40t47 50t81 39t118.5 17.5h21v-1382l123 -31v-31h-574v31l123 31v399q-92 -82 -236 -82q-205 0 -327.5 140.5t-122.5 402.5zM430 512q0 -276 48 -378.5 t136 -102.5q37 0 75 20.5t59 40.5l20 21v706q-6 18 -20.5 46t-61.5 73t-102 45q-154 0 -154 -471z" />
<glyph unicode="r" horiz-adv-x="1034" d="M82 0v31l123 30v902l-123 30v31h184q55 0 99.5 -15.5t69 -39t41 -46t20.5 -38.5l6 -15q4 6 12 17.5t37 40t61.5 50t85 39t109.5 17.5q217 0 217 -194q0 -70 -42 -112t-112 -42l-82 10v287q-74 0 -137 -41t-90 -82l-29 -41v-758l123 -30v-31h-573z" />
<glyph unicode="s" horiz-adv-x="1105" d="M92 -10v348h82q4 -12 11.5 -33.5t37 -77t66.5 -96.5t99.5 -76t133.5 -35q84 0 129 43t45 121q0 61 -61.5 113.5t-148.5 94.5t-174 90t-148.5 124t-61.5 172q0 123 105.5 200t324.5 77q74 0 143.5 -28t102.5 -56l33 -29q18 27 46 50.5t48 31.5l19 10h51v-348h-82 q-4 12 -11.5 33.5t-36 77t-62 96.5t-90 76t-120.5 35q-55 0 -94 -41t-39 -103q0 -68 61.5 -123t148.5 -99t174 -91t148.5 -119t61.5 -162q0 -297 -471 -297q-86 0 -162.5 28t-109.5 56l-35 29q-18 -27 -46 -50.5t-46 -31.5l-21 -10h-51z" />
<glyph unicode="t" horiz-adv-x="921" d="M31 973v51h143v102q0 184 184 185h144v-287h286v-51h-286v-625q0 -186 39 -257t114 -71q74 0 129.5 72t55.5 195h51q0 -152 -76 -235t-201 -83q-203 0 -321.5 106.5t-118.5 272.5v625h-143z" />
<glyph unicode="u" horiz-adv-x="1331" d="M51 993v31h266q184 0 185 -184v-533q0 -129 47 -197.5t106 -68.5q55 0 101.5 41t64.5 82l19 41v758l-123 30v31h573v-31l-123 -30v-973h-20q-66 0 -119 16.5t-80.5 41t-47 49t-23.5 40.5l-7 17q-4 -8 -10 -20.5t-31.5 -44.5t-57.5 -56.5t-85 -44t-113 -19.5 q-172 0 -285.5 101.5t-113.5 236.5v656z" />
<glyph unicode="v" horiz-adv-x="1146" d="M-41 993v31h256q106 0 168.5 -44t108.5 -130l243 -473l228 555l-154 61v31h379v-31l-164 -61l-389 -952h-62l-512 983z" />
<glyph unicode="w" horiz-adv-x="1710" d="M-41 993v31h236q193 0 276 -174l225 -471l117 299l-137 285l-103 30v31h236q193 0 276 -174l226 -471l215 553l-154 61v31h379v-31l-164 -61l-379 -952h-61l-303 630l-250 -630h-62l-471 983z" />
<glyph unicode="x" horiz-adv-x="1136" d="M-10 993v31h276q98 0 159.5 -43t117.5 -131l104 -166l193 248l-154 61v31h389v-31l-164 -61l-233 -297l366 -574l103 -30v-31h-277q-98 0 -159.5 43t-116.5 131l-123 193l-215 -275l154 -61v-31h-390v31l164 61l254 326l-346 545z" />
<glyph unicode="y" horiz-adv-x="1146" d="M-41 993v31h256q106 0 167.5 -44t109.5 -130l256 -473l215 555l-154 61v31h379v-31l-164 -61l-410 -1055q-66 -166 -139.5 -241.5t-167.5 -75.5q-92 0 -143 49t-51 135q0 76 42 120t111 44l82 -10v-277q55 8 103.5 65.5t101.5 190.5l41 103l-533 983z" />
<glyph unicode="z" horiz-adv-x="1116" d="M82 0v51l584 922h-369q0 -86 -34 -163t-66 -110l-33 -34h-62v358h932v-51l-583 -922h389q0 86 32.5 163t65.5 110l35 34h61v-358h-952z" />
<glyph unicode="{" horiz-adv-x="757" d="M61 481v62q154 0 154 205v419q0 129 107.5 218.5t291.5 89.5h123v-52h-20q-80 0 -127 -55t-47 -160v-379q0 -86 -34 -150.5t-82 -95t-96 -48t-81 -19.5l-35 -4q14 0 35.5 -3t78 -21.5t99.5 -48t79 -94t36 -150.5v-379q0 -104 47 -159.5t127 -55.5h20v-52h-123 q-184 0 -291.5 89.5t-107.5 218.5v419q0 205 -154 205z" />
<glyph unicode="|" horiz-adv-x="460" d="M174 -410v1844h113v-1844h-113z" />
<glyph unicode="}" horiz-adv-x="757" d="M20 -399h21q80 0 127 55t47 160v379q0 86 34 150.5t82 95t96 48t81 19.5l35 4q-14 0 -36 3t-78 21.5t-99 48t-79 94t-36 150.5v379q0 104 -47 159.5t-127 55.5h-21v52h123q184 0 292 -89.5t108 -218.5v-419q-1 -205 153 -205v-62q-154 0 -153 -205v-419 q0 -129 -107.5 -218.5t-292.5 -89.5h-123v52z" />
<glyph unicode="~" horiz-adv-x="1054" d="M61 481q0 193 74 286t203 93q100 0 231 -76.5t209 -76.5q68 0 116 46t48 107h51q0 -193 -73.5 -286t-202.5 -93q-100 0 -228.5 77t-212.5 77q-68 0 -115.5 -46t-47.5 -108h-52z" />
<glyph unicode="&#xad;" horiz-adv-x="962" d="M72 614v93h819v-93h-819z" />
<glyph unicode="&#x2000;" horiz-adv-x="839" />
<glyph unicode="&#x2001;" horiz-adv-x="1679" />
<glyph unicode="&#x2002;" horiz-adv-x="839" />
<glyph unicode="&#x2003;" horiz-adv-x="1679" />
<glyph unicode="&#x2004;" horiz-adv-x="559" />
<glyph unicode="&#x2005;" horiz-adv-x="419" />
<glyph unicode="&#x2006;" horiz-adv-x="279" />
<glyph unicode="&#x2007;" horiz-adv-x="279" />
<glyph unicode="&#x2008;" horiz-adv-x="209" />
<glyph unicode="&#x2009;" horiz-adv-x="335" />
<glyph unicode="&#x200a;" horiz-adv-x="93" />
<glyph unicode="&#x2010;" horiz-adv-x="962" d="M72 614v93h819v-93h-819z" />
<glyph unicode="&#x2011;" horiz-adv-x="962" d="M72 614v93h819v-93h-819z" />
<glyph unicode="&#x2012;" horiz-adv-x="962" d="M72 614v93h819v-93h-819z" />
<glyph unicode="&#x2013;" horiz-adv-x="1167" d="M72 614v93h1024v-93h-1024z" />
<glyph unicode="&#x2014;" horiz-adv-x="2191" d="M72 614v93h2048v-93h-2048z" />
<glyph unicode="&#x202f;" horiz-adv-x="335" />
<glyph unicode="&#x205f;" horiz-adv-x="419" />
<glyph unicode="&#x25fc;" horiz-adv-x="1024" d="M0 0v1024h1024v-1024h-1024z" />
</font>
</defs>
</svg>
